<svg width="32" height="23" viewBox="0 0 32 23" fill="none" xmlns="http://www.w3.org/2000/svg">
<path fill-rule="evenodd" clip-rule="evenodd" d="M8.57309 4.04651L0.984253 11.5C2.50216 12.9909 4.23613 14.2473 6.12666 15.2303C6.64921 16.5917 7.46829 17.8684 8.58389 18.9641C12.7811 23.0864 19.586 23.0864 23.7832 18.9641C24.8988 17.8684 25.7179 16.5917 26.2404 15.2302C28.1309 14.2473 29.8649 12.9909 31.3828 11.5L23.8001 4.05257C23.7945 4.047 23.7889 4.04143 23.7832 4.03586C19.586 -0.0864584 12.7811 -0.0864584 8.58389 4.03586C8.5803 4.03942 8.57669 4.04296 8.57309 4.04651ZM23.057 16.5751C20.8455 17.3081 18.524 17.6835 16.1835 17.6835C13.8431 17.6835 11.5216 17.3081 9.31011 16.5751C9.54973 16.8873 9.81427 17.1869 10.1038 17.4713C13.4616 20.7692 18.9055 20.7692 22.2632 17.4713C22.5528 17.1869 22.8174 16.8873 23.057 16.5751ZM10.2597 5.3794C10.8299 5.74939 11.4362 6.066 12.0706 6.32412C13.3746 6.8546 14.7721 7.12764 16.1835 7.12764C17.5949 7.12764 18.9925 6.8546 20.2965 6.32412C20.9309 6.066 21.5372 5.74939 22.1075 5.37939C18.7916 2.28059 13.5755 2.2806 10.2597 5.3794Z" fill="#3B4158"/>
</svg>
